<svg xmlns="http://www.w3.org/2000/svg" xmlns:xlink="http://www.w3.org/1999/xlink" width="1080" zoomAndPan="magnify" viewBox="0 0 810 809.999993" height="1080" preserveAspectRatio="xMidYMid meet" version="1.0"><defs><clipPath id="bb7f86951b"><path d="M 2.308594 0 L 810 0 L 810 810 L 2.308594 810 Z M 2.308594 0 " clip-rule="nonzero"/></clipPath></defs><rect x="-81" width="972" fill="#ffffff" y="-80.999999" height="971.999992" fill-opacity="1"/><rect x="-81" width="972" fill="#ffffff" y="-80.999999" height="971.999992" fill-opacity="1"/><g clip-path="url(#bb7f86951b)"><rect x="-81" width="972" fill="#f9f7f4" y="-80.999999" height="971.999992" fill-opacity="1"/></g><path fill="#3dc4f9" d="M 717.664062 415.328125 C 717.664062 506.710938 681.304688 589.617188 622.226562 650.332031 C 622.058594 650.496094 621.910156 650.664062 621.730469 650.828125 C 621.003906 651.589844 620.257812 652.339844 619.519531 653.105469 C 618.960938 653.644531 618.429688 654.183594 617.882812 654.703125 C 616.113281 656.476562 614.328125 658.203125 612.53125 659.894531 C 612.15625 660.253906 611.769531 660.601562 611.390625 660.980469 C 610.746094 661.585938 610.128906 662.179688 609.496094 662.753906 C 609.359375 662.878906 609.242188 663.003906 609.089844 663.117188 C 608.902344 663.296875 608.71875 663.46875 608.523438 663.636719 C 607.285156 664.800781 606.011719 665.929688 604.746094 667.070312 C 580.792969 688.410156 553.792969 706.382812 524.445312 720.261719 L 524.359375 720.289062 C 519.289062 722.691406 514.136719 724.972656 508.921875 727.105469 C 486.496094 736.34375 462.867188 743.242188 438.316406 747.484375 L 438.289062 747.484375 C 432.269531 748.523438 426.207031 749.390625 420.078125 750.121094 C 419.652344 750.183594 419.238281 750.214844 418.8125 750.277344 C 415.488281 750.640625 412.140625 750.957031 408.765625 751.234375 C 403.097656 751.722656 397.390625 752.035156 391.640625 752.222656 C 391.121094 752.230469 390.609375 752.257812 390.089844 752.261719 C 389.992188 752.277344 389.894531 752.277344 389.796875 752.261719 C 386.738281 752.359375 383.664062 752.402344 380.597656 752.402344 C 367.773438 752.402344 355.136719 751.699219 342.699219 750.296875 C 339.121094 749.910156 335.550781 749.441406 331.992188 748.910156 C 323.1875 747.648438 314.460938 746.03125 305.851562 744.082031 C 257.660156 733.167969 213.386719 711.929688 175.476562 682.816406 C 172.882812 680.835938 170.34375 678.8125 167.808594 676.761719 C 167.066406 676.160156 166.339844 675.554688 165.609375 674.945312 C 165.265625 674.648438 164.90625 674.367188 164.5625 674.078125 C 156.058594 666.964844 147.917969 659.445312 140.171875 651.542969 C 80.390625 590.726562 43.523438 507.339844 43.523438 415.328125 C 43.523438 229.164062 194.445312 78.257812 380.597656 78.257812 C 566.753906 78.253906 717.664062 229.164062 717.664062 415.328125 Z M 717.664062 415.328125 " fill-opacity="1" fill-rule="nonzero"/><path fill="#edc9af" d="M 630.296875 596.257812 L 623.609375 647 C 623.441406 647.152344 623.296875 647.324219 623.113281 647.488281 C 622.382812 648.25 621.644531 649.007812 620.902344 649.753906 C 589.558594 681.25 552.042969 706.570312 510.308594 723.78125 C 473.972656 738.757812 434.457031 747.550781 393.023438 748.890625 C 389.371094 749.015625 385.683594 749.066406 381.980469 749.066406 C 356.289062 749.066406 331.277344 746.1875 307.242188 740.742188 C 259.046875 729.839844 214.773438 708.589844 176.855469 679.480469 C 174.273438 677.503906 171.722656 675.472656 169.195312 673.421875 C 163.179688 650.84375 155.582031 627.515625 153.929688 622.46875 C 153.796875 622.082031 153.699219 621.785156 153.644531 621.625 C 153.613281 621.542969 153.605469 621.488281 153.605469 621.488281 C 153.605469 621.488281 159.152344 619.882812 168.007812 617.1875 C 168.492188 617.050781 168.972656 616.898438 169.464844 616.75 L 169.550781 616.722656 C 183.980469 612.34375 206.246094 605.378906 227.828125 597.878906 C 243.859375 592.296875 259.523438 586.410156 271.359375 581.039062 C 271.429688 580.992188 271.5 580.960938 271.566406 580.945312 C 271.648438 580.898438 271.75 580.867188 271.832031 580.8125 C 273.285156 580.152344 274.667969 579.488281 275.996094 578.84375 C 285.75 574.082031 291.917969 569.84375 291.90625 566.761719 C 291.886719 564.773438 292.914062 560.195312 294.214844 553.949219 C 297.957031 535.707031 303.84375 503.292969 291.90625 480.316406 L 444.140625 473.914062 C 444.140625 473.914062 448.15625 528.738281 460.277344 553.675781 C 462.234375 557.671875 464.371094 560.890625 466.738281 563.019531 C 468.277344 564.386719 470.789062 565.777344 474.066406 567.164062 C 480.496094 569.890625 489.929688 572.613281 501.046875 575.21875 L 501.058594 575.21875 C 501.167969 575.265625 501.261719 575.28125 501.371094 575.3125 C 501.386719 575.3125 501.398438 575.3125 501.410156 575.316406 C 512.84375 578.003906 526.023438 580.582031 539.496094 582.960938 C 570.988281 588.492188 604.042969 592.933594 620.199219 594.984375 C 624.675781 595.558594 627.84375 595.960938 629.335938 596.136719 C 629.96875 596.207031 630.296875 596.257812 630.296875 596.257812 Z M 630.296875 596.257812 " fill-opacity="1" fill-rule="nonzero"/><path fill="#edc9af" d="M 475.382812 473.917969 C 475.382812 487.753906 458.632812 501.839844 444.800781 501.839844 L 296.539062 501.183594 C 282.710938 501.183594 269.285156 487.753906 269.285156 473.917969 L 253.984375 260.921875 C 253.984375 247.097656 265.199219 235.886719 279.027344 235.886719 L 469.617188 235.886719 C 483.453125 235.886719 494.667969 247.097656 494.667969 260.921875 Z M 475.382812 473.917969 " fill-opacity="1" fill-rule="nonzero"/><path fill="#0a0c0c" d="M 347.191406 350.5 C 347.191406 360.222656 339.3125 368.101562 329.589844 368.101562 C 319.871094 368.101562 311.992188 360.222656 311.992188 350.5 C 311.992188 340.777344 319.871094 332.914062 329.589844 332.914062 C 339.3125 332.914062 347.191406 340.777344 347.191406 350.5 Z M 347.191406 350.5 " fill-opacity="1" fill-rule="nonzero"/><path fill="#ffffff" d="M 345.988281 350.5 C 345.988281 355.359375 342.054688 359.300781 337.191406 359.300781 C 332.332031 359.300781 328.390625 355.359375 328.390625 350.5 C 328.390625 345.640625 332.332031 341.710938 337.191406 341.710938 C 342.050781 341.710938 345.988281 345.640625 345.988281 350.5 Z M 345.988281 350.5 " fill-opacity="1" fill-rule="nonzero"/><path fill="#0a0c0c" d="M 441.792969 350.5 C 441.792969 360.222656 433.914062 368.101562 424.191406 368.101562 C 414.484375 368.101562 406.597656 360.222656 406.597656 350.5 C 406.597656 340.777344 414.484375 332.914062 424.191406 332.914062 C 433.914062 332.914062 441.792969 340.777344 441.792969 350.5 Z M 441.792969 350.5 " fill-opacity="1" fill-rule="nonzero"/><path fill="#ffffff" d="M 440.601562 350.5 C 440.601562 355.359375 436.65625 359.300781 431.804688 359.300781 C 426.9375 359.300781 423.003906 355.359375 423.003906 350.5 C 423.003906 345.640625 426.933594 341.710938 431.804688 341.710938 C 436.65625 341.710938 440.601562 345.640625 440.601562 350.5 Z M 440.601562 350.5 " fill-opacity="1" fill-rule="nonzero"/><path stroke-linecap="butt" transform="matrix(2.219375, 0, 0, 2.219375, -1714.993158, -1726.549237)" fill="none" stroke-linejoin="miter" d="M 906.745095 917.049158 C 906.745095 913.280853 912.319229 910.230656 919.199334 910.230656 C 926.072399 910.230656 931.644773 913.280853 931.644773 917.049158 " stroke="#020202" stroke-width="1.24" stroke-opacity="1" stroke-miterlimit="10"/><path stroke-linecap="butt" transform="matrix(2.219375, 0, 0, 2.219375, -1714.993158, -1726.549237)" fill="none" stroke-linejoin="miter" d="M 951.684904 917.049158 C 951.684904 913.280853 957.255519 910.230656 964.135623 910.230656 C 971.008688 910.230656 976.586343 913.280853 976.586343 917.049158 " stroke="#020202" stroke-width="1.24" stroke-opacity="1" stroke-miterlimit="10"/><path fill="#edc9af" d="M 486.960938 321.105469 C 489.027344 318.117188 493.605469 313.761719 497.273438 314.910156 C 500.949219 316.058594 518.148438 332.332031 490.160156 365.128906 C 490.160156 365.128906 496.585938 380.269531 481.910156 390.355469 " fill-opacity="1" fill-rule="nonzero"/><path fill="#edc9af" d="M 259.589844 324.507812 C 257.527344 321.527344 252.941406 317.160156 249.277344 318.316406 C 245.613281 319.460938 228.414062 335.738281 256.386719 368.53125 C 256.386719 368.53125 249.96875 383.664062 264.640625 393.757812 " fill-opacity="1" fill-rule="nonzero"/><path stroke-linecap="butt" transform="matrix(2.219375, 0, 0, 2.219375, -1714.993158, -1726.549237)" fill="none" stroke-linejoin="miter" d="M 943.537551 948.404765 C 943.537551 952.248753 941.874287 955.362313 939.820288 955.362313 " stroke="#000000" stroke-width="0.62" stroke-opacity="1" stroke-miterlimit="10"/><path fill="#ffffff" d="M 336 436.101562 C 339.074219 430.941406 406.167969 431.972656 411.328125 436.101562 C 416.484375 440.234375 391.035156 471.527344 376.238281 471.527344 C 361.460938 471.527344 329.46875 447.105469 336 436.101562 Z M 336 436.101562 " fill-opacity="1" fill-rule="nonzero"/><path fill="#dcb7a1" d="M 298.15625 501.191406 L 447.285156 501.839844 C 447.285156 501.839844 449.242188 516.292969 449.773438 517.191406 C 450.734375 518.777344 391.300781 528.714844 376.339844 528.199219 C 361.386719 527.679688 298.980469 517.613281 298.980469 517.613281 Z M 298.15625 501.191406 " fill-opacity="1" fill-rule="nonzero"/><path fill="#4a3018" d="M 309.714844 261.617188 C 309.597656 261.632812 309.488281 261.617188 309.371094 261.566406 C 309.976562 261.574219 310.140625 261.574219 309.714844 261.617188 Z M 309.714844 261.617188 " fill-opacity="1" fill-rule="nonzero"/><path fill="#4a3018" d="M 526.40625 230.660156 C 526.40625 230.660156 524.765625 231.378906 521.734375 232.609375 L 521.707031 232.632812 C 518.917969 233.777344 514.960938 235.355469 510.019531 237.210938 C 505.617188 238.875 500.453125 240.777344 494.65625 242.773438 C 490.214844 244.3125 485.40625 245.929688 480.296875 247.539062 C 422.882812 265.734375 328.148438 285.78125 293.902344 234.46875 C 294.324219 235.441406 305.597656 260.328125 309.371094 261.566406 C 305.015625 261.480469 278.113281 260.769531 272.902344 239.605469 C 271.191406 232.632812 260.863281 325.9375 260.863281 325.9375 C 260.863281 325.9375 260.453125 325.222656 259.714844 323.914062 C 251.058594 308.511719 197.953125 210.113281 255.027344 211.058594 C 255.027344 211.058594 266.632812 174.613281 310.054688 166.6875 C 456.921875 139.855469 523.988281 232.042969 526.40625 230.660156 Z M 526.40625 230.660156 " fill-opacity="1" fill-rule="nonzero"/><path fill="#4a3018" d="M 477.386719 247.5 C 477.945312 247.085938 478.480469 246.90625 478.984375 246.949219 Z M 477.386719 247.5 " fill-opacity="1" fill-rule="nonzero"/><path fill="#4a3018" d="M 486.960938 318.121094 C 486.960938 318.121094 487.496094 288.679688 485.371094 267.675781 C 485.371094 267.601562 485.371094 267.550781 485.355469 267.480469 C 484.386719 257.855469 482.859375 250.035156 480.464844 247.6875 C 480.40625 247.625 480.355469 247.574219 480.296875 247.539062 C 479.882812 247.175781 479.449219 246.96875 478.984375 246.949219 L 509.957031 236.203125 C 509.96875 236.304688 510.003906 236.582031 510.015625 237.019531 L 510.015625 237.210938 C 510.261719 246.679688 508.914062 317.855469 486.960938 318.121094 Z M 486.960938 318.121094 " fill-opacity="1" fill-rule="nonzero"/><path fill="#7c131d" d="M 630.738281 596.097656 L 630.601562 597.242188 L 628.320312 615.09375 L 627.328125 622.941406 L 624.171875 647.738281 C 623.429688 648.5 621.824219 650.507812 621.085938 651.277344 C 620.007812 652.363281 618.9375 653.453125 617.84375 654.523438 C 616.085938 656.296875 614.300781 658.042969 612.476562 659.765625 C 612.117188 660.117188 611.730469 660.480469 611.339844 660.859375 C 610.585938 661.5625 609.820312 662.285156 609.054688 662.988281 C 608.863281 663.164062 608.667969 663.332031 608.476562 663.503906 C 607.238281 664.679688 605.972656 665.792969 604.714844 666.949219 C 577.082031 691.765625 545.597656 712.03125 510.914062 726.5625 C 482.457031 738.480469 451.824219 746.550781 419.992188 750.140625 C 411.179688 751.128906 402.273438 751.789062 393.289062 752.082031 C 392.160156 752.121094 391.082031 752.132812 390.039062 752.132812 C 389.941406 752.144531 389.84375 752.144531 389.75 752.132812 C 387.4375 752.132812 385.195312 752.082031 382.734375 752.082031 C 369.203125 752.082031 355.839844 751.339844 342.722656 749.835938 C 330.9375 748.503906 319.375 746.539062 307.988281 743.917969 C 259.785156 732.835938 215.316406 711.394531 177.390625 681.804688 C 174.804688 679.796875 172.011719 677.601562 169.484375 675.523438 C 168.738281 674.898438 167.691406 673.914062 166.964844 673.296875 C 166.625 673.015625 166.042969 672.835938 166.25 671.894531 L 153.496094 621.679688 L 153.644531 621.628906 L 154.234375 621.453125 L 168.285156 617.191406 L 169.464844 616.753906 L 169.550781 616.726562 L 226.980469 595.0625 L 269.859375 581.402344 C 269.859375 581.402344 270.652344 581.097656 271.664062 580.753906 C 271.726562 580.722656 271.777344 580.800781 271.832031 580.816406 C 271.84375 580.832031 271.855469 580.851562 271.867188 580.851562 C 274.03125 581.910156 277.234375 583.441406 281.226562 585.335938 C 301.59375 595.019531 342.304688 613.691406 368.644531 621.226562 C 376.351562 623.429688 382.816406 624.683594 387.199219 624.476562 C 387.625 624.464844 388.03125 624.417969 388.4375 624.375 C 400.574219 622.859375 431.910156 608.679688 458.875 595.753906 C 461.996094 594.253906 465.050781 592.785156 468.027344 591.355469 C 482.988281 584.09375 495.546875 577.808594 501.046875 575.226562 L 501.058594 575.226562 C 501.277344 575.125 501.484375 575.042969 501.675781 574.960938 C 501.691406 574.960938 501.703125 574.949219 501.714844 574.949219 C 503.078125 574.316406 503.875 573.980469 503.996094 574.027344 C 504.082031 574.046875 504.6875 574.167969 505.730469 574.382812 L 505.753906 574.382812 C 510.390625 575.269531 523.609375 577.625 539.773438 580.503906 C 567.503906 585.445312 603.925781 591.890625 620.671875 594.855469 Z M 630.738281 596.097656 " fill-opacity="1" fill-rule="nonzero"/><path fill="#4a3018" d="M 263.65625 388.453125 L 267.359375 382.503906 C 267.359375 382.503906 292.183594 473.753906 325.550781 430.644531 C 358.902344 387.539062 374.800781 415.429688 375.660156 417.113281 C 376.894531 419.550781 375.234375 432.597656 375.234375 432.597656 C 375.234375 432.597656 337.40625 431.761719 336.59375 436.101562 C 335.78125 440.425781 339.164062 452.058594 348.246094 458.027344 C 354.925781 462.417969 366.464844 471.898438 375.429688 471.496094 L 385.648438 504.035156 C 385.648438 504.035156 300.421875 511.824219 278.535156 493.398438 C 266.796875 483.507812 268.148438 457.585938 267.324219 446.214844 C 266.496094 434.835938 263.65625 388.453125 263.65625 388.453125 Z M 263.65625 388.453125 " fill-opacity="1" fill-rule="nonzero"/><path fill="#4a3018" d="M 482.53125 388.453125 L 478.828125 382.503906 C 478.828125 382.503906 454 473.753906 420.636719 430.644531 C 387.289062 387.539062 371.390625 415.429688 370.523438 417.113281 C 369.273438 419.550781 370.949219 432.597656 370.949219 432.597656 C 370.949219 432.597656 408.78125 431.761719 409.589844 436.101562 C 410.402344 440.425781 407.015625 452.058594 397.9375 458.027344 C 391.265625 462.417969 379.722656 471.898438 370.753906 471.496094 L 369.429688 503.804688 C 369.429688 503.804688 445.769531 511.824219 467.648438 493.402344 C 479.386719 483.507812 478.039062 457.585938 478.863281 446.214844 C 479.691406 434.835938 482.53125 388.453125 482.53125 388.453125 Z M 482.53125 388.453125 " fill-opacity="1" fill-rule="nonzero"/><path fill="#000000" d="M 322.882812 368.644531 C 322.761719 368.652344 322.65625 368.644531 322.539062 368.59375 C 323.148438 368.601562 323.304688 368.601562 322.882812 368.644531 Z M 322.882812 368.644531 " fill-opacity="0.3" fill-rule="nonzero"/><path fill="#72451d" d="M 521.730469 232.609375 L 521.703125 232.628906 L 510.015625 237.019531 L 494.652344 242.769531 C 494.652344 242.769531 504.265625 289.628906 486.957031 318.121094 C 486.957031 318.121094 487.066406 288.496094 485.371094 267.675781 C 485.371094 267.601562 485.371094 267.550781 485.355469 267.480469 C 484.421875 255.878906 482.90625 247.050781 480.511719 247.671875 L 480.464844 247.6875 C 480.402344 247.625 480.355469 247.574219 480.292969 247.539062 C 422.878906 265.734375 328.144531 285.78125 293.898438 234.46875 C 294.320312 235.441406 305.597656 260.324219 309.367188 261.566406 C 305.015625 261.480469 278.109375 260.769531 272.902344 239.605469 C 271.1875 232.632812 260.863281 325.9375 260.863281 325.9375 C 260.863281 325.9375 260.449219 325.222656 259.710938 323.914062 C 255.828125 306.832031 227.078125 225.609375 261.367188 219.925781 L 279.480469 223.359375 C 279.480469 223.359375 280.511719 214.191406 290.144531 210.519531 C 416.902344 162.222656 514.402344 234.335938 521.730469 232.609375 Z M 521.730469 232.609375 " fill-opacity="1" fill-rule="nonzero"/><path stroke-linecap="butt" transform="matrix(2.219375, 0, 0, 2.219375, -1714.993158, -1726.549237)" fill="none" stroke-linejoin="miter" d="M 937.313951 940.929757 C 937.313951 946.387727 933.443562 950.817818 928.663218 950.817818 L 909.436238 950.817818 C 904.661174 950.817818 900.787265 946.387727 900.787265 940.929757 L 900.787265 930.216225 C 900.787265 924.756495 904.661174 920.329924 909.436238 920.329924 L 928.663218 920.329924 C 933.443562 920.329924 937.313951 924.756495 937.313951 930.216225 Z M 937.313951 940.929757 " stroke="#020202" stroke-width="1.86" stroke-opacity="1" stroke-miterlimit="10"/><path stroke-linecap="butt" transform="matrix(2.219375, 0, 0, 2.219375, -1714.993158, -1726.549237)" fill="none" stroke-linejoin="miter" d="M 982.570573 941.482419 C 982.570573 946.943909 978.693144 951.370479 973.91984 951.370479 L 954.69286 951.370479 C 949.914276 951.370479 946.040367 946.943909 946.040367 941.482419 L 946.040367 930.775926 C 946.040367 925.312676 949.914276 920.889626 954.69286 920.889626 L 973.91984 920.889626 C 978.693144 920.889626 982.570573 925.312676 982.570573 930.775926 Z M 982.570573 941.482419 " stroke="#020202" stroke-width="1.86" stroke-opacity="1" stroke-miterlimit="10"/><path stroke-linecap="butt" transform="matrix(2.219375, 0, 0, 2.219375, -1714.993158, -1726.549237)" fill="none" stroke-linejoin="miter" d="M 945.556348 936.293739 C 943.335143 934.067253 939.742845 934.067253 937.523399 936.293739 " stroke="#020202" stroke-width="1.24" stroke-opacity="1" stroke-miterlimit="10"/><path stroke-linecap="butt" transform="matrix(2.219375, 0, 0, 2.219375, -1714.993158, -1726.549237)" fill="none" stroke-linejoin="miter" d="M 998.400622 962.909483 C 998.400622 979.739251 983.760379 993.353375 965.672163 993.353375 " stroke="#7c7c9d" stroke-width="6.601" stroke-opacity="1" stroke-miterlimit="10"/><path stroke-linecap="butt" transform="matrix(2.219375, 0, 0, 2.219375, -1714.993158, -1726.549237)" fill="none" stroke-linejoin="miter" d="M 880.101189 919.735022 C 874.095838 887.126247 906.908781 854.204179 942.831764 854.204179 C 978.752986 854.204179 1007.482572 889.322811 1001.637387 920.919547 " stroke="#7c7c9d" stroke-width="6.819" stroke-opacity="1" stroke-miterlimit="10"/><path fill="#32353f" d="M 487.164062 294.589844 L 480.964844 419.195312 C 485.890625 418.59375 490.648438 417.515625 495.175781 416.007812 C 520.378906 407.601562 538.851562 385.949219 540.152344 359.691406 C 541.464844 333.414062 525.226562 310.039062 500.992188 299.171875 C 496.632812 297.214844 492.007812 295.671875 487.164062 294.589844 Z M 487.164062 294.589844 " fill-opacity="1" fill-rule="nonzero"/><path fill="#7d7d9b" d="M 487.164062 294.589844 L 480.964844 419.195312 C 485.890625 418.59375 490.648438 417.515625 495.175781 416.007812 L 500.988281 299.171875 C 496.632812 297.214844 492.007812 295.671875 487.164062 294.589844 Z M 487.164062 294.589844 " fill-opacity="1" fill-rule="nonzero"/><path fill="#32353f" d="M 434.21875 484.636719 C 434.21875 492.734375 427.652344 499.289062 419.566406 499.289062 L 385.09375 499.289062 C 376.996094 499.289062 370.441406 492.738281 370.441406 484.636719 L 370.441406 477.308594 C 370.441406 469.21875 376.992188 462.671875 385.09375 462.671875 L 419.566406 462.671875 C 427.652344 462.671875 434.21875 469.21875 434.21875 477.308594 Z M 434.21875 484.636719 " fill-opacity="1" fill-rule="nonzero"/><path fill="#32353f" d="M 258.441406 293.628906 L 264.640625 418.253906 C 259.71875 417.636719 254.964844 416.558594 250.429688 415.054688 C 225.234375 406.648438 206.765625 384.992188 205.453125 358.730469 C 204.148438 332.46875 220.382812 309.089844 244.617188 298.21875 C 248.976562 296.265625 253.609375 294.71875 258.441406 293.628906 Z M 258.441406 293.628906 " fill-opacity="1" fill-rule="nonzero"/><path fill="#7d7d9b" d="M 258.441406 293.628906 L 264.640625 418.253906 C 259.71875 417.636719 254.964844 416.558594 250.429688 415.054688 L 244.617188 298.21875 C 248.976562 296.265625 253.609375 294.71875 258.441406 293.628906 Z M 258.441406 293.628906 " fill-opacity="1" fill-rule="nonzero"/></svg>